<mxfile host="app.diagrams.net" agent="Mozilla/5.0 (Macintosh; Intel Mac OS X 10_15_7) AppleWebKit/605.1.15 (KHTML, like Gecko) Version/17.3.1 Safari/605.1.15" version="26.1.1">
  <diagram name="Page-1" id="Dd2k6ZitIPzUoGSmlqJK">
    <mxGraphModel dx="3585" dy="2068" grid="1" gridSize="10" guides="1" tooltips="1" connect="1" arrows="1" fold="1" page="1" pageScale="1" pageWidth="827" pageHeight="1169" math="0" shadow="0">
      <root>
        <mxCell id="0" />
        <mxCell id="1" parent="0" />
        <mxCell id="fZSX2Tx-VuzL_oRfiSZg-138" value="" style="whiteSpace=wrap;html=1;aspect=fixed;fillColor=none;strokeColor=#d6b656;strokeWidth=4;" parent="1" vertex="1">
          <mxGeometry x="950" y="460.5" width="719" height="719" as="geometry" />
        </mxCell>
        <mxCell id="iwfAUyEC3lnXAY1kdjGo-4" value="" style="rounded=0;whiteSpace=wrap;html=1;rotation=90;" parent="1" vertex="1">
          <mxGeometry x="1020" y="787" width="520" height="60" as="geometry" />
        </mxCell>
        <mxCell id="fZSX2Tx-VuzL_oRfiSZg-1" value="" style="ellipse;whiteSpace=wrap;html=1;aspect=fixed;strokeColor=#4D4D4D;fillColor=#4D4D4D;" parent="1" vertex="1">
          <mxGeometry x="160" y="360" width="40" height="40" as="geometry" />
        </mxCell>
        <mxCell id="fZSX2Tx-VuzL_oRfiSZg-3" value="" style="ellipse;whiteSpace=wrap;html=1;aspect=fixed;strokeColor=#3333FF;fillColor=#3333FF;" parent="1" vertex="1">
          <mxGeometry x="160" y="200" width="40" height="40" as="geometry" />
        </mxCell>
        <mxCell id="fZSX2Tx-VuzL_oRfiSZg-4" value="" style="ellipse;whiteSpace=wrap;html=1;aspect=fixed;strokeColor=#3333FF;fillColor=#3333FF;" parent="1" vertex="1">
          <mxGeometry x="160" y="280" width="40" height="40" as="geometry" />
        </mxCell>
        <mxCell id="fZSX2Tx-VuzL_oRfiSZg-5" value="" style="ellipse;whiteSpace=wrap;html=1;aspect=fixed;strokeColor=#4D4D4D;fillColor=#4D4D4D;" parent="1" vertex="1">
          <mxGeometry x="160" y="440" width="40" height="40" as="geometry" />
        </mxCell>
        <mxCell id="fZSX2Tx-VuzL_oRfiSZg-7" value="" style="ellipse;whiteSpace=wrap;html=1;aspect=fixed;strokeColor=#3333FF;fillColor=#3333FF;" parent="1" vertex="1">
          <mxGeometry x="360" y="320" width="40" height="40" as="geometry" />
        </mxCell>
        <mxCell id="fZSX2Tx-VuzL_oRfiSZg-8" value="" style="ellipse;whiteSpace=wrap;html=1;aspect=fixed;strokeColor=#3333FF;fillColor=#3333FF;" parent="1" vertex="1">
          <mxGeometry x="360" y="240" width="40" height="40" as="geometry" />
        </mxCell>
        <mxCell id="fZSX2Tx-VuzL_oRfiSZg-10" value="" style="ellipse;whiteSpace=wrap;html=1;aspect=fixed;strokeColor=#4D4D4D;fillColor=#4D4D4D;" parent="1" vertex="1">
          <mxGeometry x="360" y="400" width="40" height="40" as="geometry" />
        </mxCell>
        <mxCell id="fZSX2Tx-VuzL_oRfiSZg-11" value="" style="ellipse;whiteSpace=wrap;html=1;aspect=fixed;strokeColor=#CC0000;fillColor=#CC0000;" parent="1" vertex="1">
          <mxGeometry x="560" y="280" width="40" height="40" as="geometry" />
        </mxCell>
        <mxCell id="fZSX2Tx-VuzL_oRfiSZg-12" value="" style="ellipse;whiteSpace=wrap;html=1;aspect=fixed;strokeColor=#CC0000;fillColor=#CC0000;" parent="1" vertex="1">
          <mxGeometry x="560" y="360" width="40" height="40" as="geometry" />
        </mxCell>
        <mxCell id="fZSX2Tx-VuzL_oRfiSZg-13" style="rounded=0;orthogonalLoop=1;jettySize=auto;html=1;exitX=1;exitY=0.5;exitDx=0;exitDy=0;entryX=0;entryY=0.5;entryDx=0;entryDy=0;endArrow=none;startFill=0;" parent="1" source="fZSX2Tx-VuzL_oRfiSZg-3" target="fZSX2Tx-VuzL_oRfiSZg-8" edge="1">
          <mxGeometry relative="1" as="geometry">
            <mxPoint x="210" y="230" as="sourcePoint" />
            <mxPoint x="330" y="190" as="targetPoint" />
          </mxGeometry>
        </mxCell>
        <mxCell id="fZSX2Tx-VuzL_oRfiSZg-14" style="rounded=0;orthogonalLoop=1;jettySize=auto;html=1;exitX=1;exitY=0.5;exitDx=0;exitDy=0;entryX=0;entryY=0.5;entryDx=0;entryDy=0;endArrow=none;startFill=0;" parent="1" source="fZSX2Tx-VuzL_oRfiSZg-3" target="fZSX2Tx-VuzL_oRfiSZg-7" edge="1">
          <mxGeometry relative="1" as="geometry">
            <mxPoint x="210" y="230" as="sourcePoint" />
            <mxPoint x="330" y="270" as="targetPoint" />
          </mxGeometry>
        </mxCell>
        <mxCell id="fZSX2Tx-VuzL_oRfiSZg-17" style="rounded=0;orthogonalLoop=1;jettySize=auto;html=1;exitX=1;exitY=0.5;exitDx=0;exitDy=0;entryX=0;entryY=0.5;entryDx=0;entryDy=0;endArrow=none;startFill=0;" parent="1" source="fZSX2Tx-VuzL_oRfiSZg-3" target="fZSX2Tx-VuzL_oRfiSZg-10" edge="1">
          <mxGeometry relative="1" as="geometry">
            <mxPoint x="230" y="250" as="sourcePoint" />
            <mxPoint x="350" y="370" as="targetPoint" />
          </mxGeometry>
        </mxCell>
        <mxCell id="fZSX2Tx-VuzL_oRfiSZg-18" style="rounded=0;orthogonalLoop=1;jettySize=auto;html=1;exitX=0;exitY=0.5;exitDx=0;exitDy=0;entryX=1;entryY=0.5;entryDx=0;entryDy=0;endArrow=none;startFill=0;" parent="1" source="fZSX2Tx-VuzL_oRfiSZg-8" target="fZSX2Tx-VuzL_oRfiSZg-1" edge="1">
          <mxGeometry relative="1" as="geometry">
            <mxPoint x="240" y="260" as="sourcePoint" />
            <mxPoint x="360" y="380" as="targetPoint" />
          </mxGeometry>
        </mxCell>
        <mxCell id="fZSX2Tx-VuzL_oRfiSZg-20" style="rounded=0;orthogonalLoop=1;jettySize=auto;html=1;exitX=0;exitY=0.5;exitDx=0;exitDy=0;entryX=1;entryY=0.5;entryDx=0;entryDy=0;endArrow=none;startFill=0;" parent="1" source="fZSX2Tx-VuzL_oRfiSZg-8" target="fZSX2Tx-VuzL_oRfiSZg-5" edge="1">
          <mxGeometry relative="1" as="geometry">
            <mxPoint x="330" y="190" as="sourcePoint" />
            <mxPoint x="210" y="470" as="targetPoint" />
          </mxGeometry>
        </mxCell>
        <mxCell id="fZSX2Tx-VuzL_oRfiSZg-22" style="rounded=0;orthogonalLoop=1;jettySize=auto;html=1;exitX=0;exitY=0.5;exitDx=0;exitDy=0;endArrow=none;startFill=0;entryX=1;entryY=0.5;entryDx=0;entryDy=0;" parent="1" source="fZSX2Tx-VuzL_oRfiSZg-7" target="fZSX2Tx-VuzL_oRfiSZg-5" edge="1">
          <mxGeometry relative="1" as="geometry">
            <mxPoint x="340" y="280" as="sourcePoint" />
            <mxPoint x="200" y="460" as="targetPoint" />
          </mxGeometry>
        </mxCell>
        <mxCell id="fZSX2Tx-VuzL_oRfiSZg-23" style="rounded=0;orthogonalLoop=1;jettySize=auto;html=1;exitX=0;exitY=0.5;exitDx=0;exitDy=0;entryX=1;entryY=0.5;entryDx=0;entryDy=0;endArrow=none;startFill=0;" parent="1" source="fZSX2Tx-VuzL_oRfiSZg-7" target="fZSX2Tx-VuzL_oRfiSZg-1" edge="1">
          <mxGeometry relative="1" as="geometry">
            <mxPoint x="330" y="270" as="sourcePoint" />
            <mxPoint x="210" y="390" as="targetPoint" />
          </mxGeometry>
        </mxCell>
        <mxCell id="fZSX2Tx-VuzL_oRfiSZg-25" style="rounded=0;orthogonalLoop=1;jettySize=auto;html=1;exitX=1;exitY=0.5;exitDx=0;exitDy=0;endArrow=none;startFill=0;entryX=0;entryY=0.5;entryDx=0;entryDy=0;" parent="1" source="fZSX2Tx-VuzL_oRfiSZg-4" target="fZSX2Tx-VuzL_oRfiSZg-8" edge="1">
          <mxGeometry relative="1" as="geometry">
            <mxPoint x="210" y="310" as="sourcePoint" />
            <mxPoint x="330" y="190" as="targetPoint" />
          </mxGeometry>
        </mxCell>
        <mxCell id="fZSX2Tx-VuzL_oRfiSZg-26" style="rounded=0;orthogonalLoop=1;jettySize=auto;html=1;exitX=1;exitY=0.5;exitDx=0;exitDy=0;endArrow=none;startFill=0;entryX=0;entryY=0.5;entryDx=0;entryDy=0;" parent="1" source="fZSX2Tx-VuzL_oRfiSZg-4" target="fZSX2Tx-VuzL_oRfiSZg-7" edge="1">
          <mxGeometry relative="1" as="geometry">
            <mxPoint x="210" y="310" as="sourcePoint" />
            <mxPoint x="330" y="270" as="targetPoint" />
          </mxGeometry>
        </mxCell>
        <mxCell id="fZSX2Tx-VuzL_oRfiSZg-27" style="rounded=0;orthogonalLoop=1;jettySize=auto;html=1;exitX=1;exitY=0.5;exitDx=0;exitDy=0;endArrow=none;startFill=0;entryX=0;entryY=0.5;entryDx=0;entryDy=0;" parent="1" source="fZSX2Tx-VuzL_oRfiSZg-4" target="fZSX2Tx-VuzL_oRfiSZg-10" edge="1">
          <mxGeometry relative="1" as="geometry">
            <mxPoint x="210" y="310" as="sourcePoint" />
            <mxPoint x="330" y="350" as="targetPoint" />
          </mxGeometry>
        </mxCell>
        <mxCell id="fZSX2Tx-VuzL_oRfiSZg-29" style="rounded=0;orthogonalLoop=1;jettySize=auto;html=1;endArrow=none;startFill=0;entryX=1;entryY=0.5;entryDx=0;entryDy=0;exitX=0;exitY=0.5;exitDx=0;exitDy=0;" parent="1" source="fZSX2Tx-VuzL_oRfiSZg-10" target="fZSX2Tx-VuzL_oRfiSZg-5" edge="1">
          <mxGeometry relative="1" as="geometry">
            <mxPoint x="330" y="510" as="sourcePoint" />
            <mxPoint x="200" y="460" as="targetPoint" />
          </mxGeometry>
        </mxCell>
        <mxCell id="fZSX2Tx-VuzL_oRfiSZg-30" style="rounded=0;orthogonalLoop=1;jettySize=auto;html=1;exitX=0;exitY=0.5;exitDx=0;exitDy=0;entryX=1;entryY=0.5;entryDx=0;entryDy=0;endArrow=none;startFill=0;" parent="1" source="fZSX2Tx-VuzL_oRfiSZg-10" target="fZSX2Tx-VuzL_oRfiSZg-1" edge="1">
          <mxGeometry relative="1" as="geometry">
            <mxPoint x="330" y="350" as="sourcePoint" />
            <mxPoint x="210" y="390" as="targetPoint" />
          </mxGeometry>
        </mxCell>
        <mxCell id="fZSX2Tx-VuzL_oRfiSZg-34" style="rounded=0;orthogonalLoop=1;jettySize=auto;html=1;exitX=1;exitY=0.5;exitDx=0;exitDy=0;entryX=0;entryY=0.5;entryDx=0;entryDy=0;endArrow=none;startFill=0;" parent="1" source="fZSX2Tx-VuzL_oRfiSZg-8" target="fZSX2Tx-VuzL_oRfiSZg-11" edge="1">
          <mxGeometry relative="1" as="geometry">
            <mxPoint x="410" y="190" as="sourcePoint" />
            <mxPoint x="530" y="390" as="targetPoint" />
          </mxGeometry>
        </mxCell>
        <mxCell id="fZSX2Tx-VuzL_oRfiSZg-35" style="rounded=0;orthogonalLoop=1;jettySize=auto;html=1;exitX=1;exitY=0.5;exitDx=0;exitDy=0;entryX=0;entryY=0.5;entryDx=0;entryDy=0;endArrow=none;startFill=0;" parent="1" source="fZSX2Tx-VuzL_oRfiSZg-8" target="fZSX2Tx-VuzL_oRfiSZg-12" edge="1">
          <mxGeometry relative="1" as="geometry">
            <mxPoint x="410" y="270" as="sourcePoint" />
            <mxPoint x="530" y="310" as="targetPoint" />
          </mxGeometry>
        </mxCell>
        <mxCell id="fZSX2Tx-VuzL_oRfiSZg-36" style="rounded=0;orthogonalLoop=1;jettySize=auto;html=1;exitX=1;exitY=0.5;exitDx=0;exitDy=0;entryX=0;entryY=0.5;entryDx=0;entryDy=0;endArrow=none;startFill=0;" parent="1" source="fZSX2Tx-VuzL_oRfiSZg-7" target="fZSX2Tx-VuzL_oRfiSZg-11" edge="1">
          <mxGeometry relative="1" as="geometry">
            <mxPoint x="410" y="270" as="sourcePoint" />
            <mxPoint x="530" y="390" as="targetPoint" />
          </mxGeometry>
        </mxCell>
        <mxCell id="fZSX2Tx-VuzL_oRfiSZg-37" style="rounded=0;orthogonalLoop=1;jettySize=auto;html=1;exitX=1;exitY=0.5;exitDx=0;exitDy=0;entryX=0;entryY=0.5;entryDx=0;entryDy=0;endArrow=none;startFill=0;" parent="1" source="fZSX2Tx-VuzL_oRfiSZg-10" target="fZSX2Tx-VuzL_oRfiSZg-12" edge="1">
          <mxGeometry relative="1" as="geometry">
            <mxPoint x="410" y="350" as="sourcePoint" />
            <mxPoint x="530" y="310" as="targetPoint" />
          </mxGeometry>
        </mxCell>
        <mxCell id="fZSX2Tx-VuzL_oRfiSZg-38" style="rounded=0;orthogonalLoop=1;jettySize=auto;html=1;exitX=1;exitY=0.5;exitDx=0;exitDy=0;entryX=0;entryY=0.5;entryDx=0;entryDy=0;endArrow=none;startFill=0;" parent="1" source="fZSX2Tx-VuzL_oRfiSZg-10" target="fZSX2Tx-VuzL_oRfiSZg-11" edge="1">
          <mxGeometry relative="1" as="geometry">
            <mxPoint x="410" y="430" as="sourcePoint" />
            <mxPoint x="530" y="390" as="targetPoint" />
          </mxGeometry>
        </mxCell>
        <mxCell id="fZSX2Tx-VuzL_oRfiSZg-39" style="rounded=0;orthogonalLoop=1;jettySize=auto;html=1;exitX=1;exitY=0.5;exitDx=0;exitDy=0;entryX=0;entryY=0.5;entryDx=0;entryDy=0;endArrow=none;startFill=0;" parent="1" source="fZSX2Tx-VuzL_oRfiSZg-7" target="fZSX2Tx-VuzL_oRfiSZg-12" edge="1">
          <mxGeometry relative="1" as="geometry">
            <mxPoint x="410" y="350" as="sourcePoint" />
            <mxPoint x="530" y="310" as="targetPoint" />
          </mxGeometry>
        </mxCell>
        <mxCell id="fZSX2Tx-VuzL_oRfiSZg-42" value="&lt;font style=&quot;font-size: 20px;&quot;&gt;Shared Model 1&lt;/font&gt;" style="rounded=0;whiteSpace=wrap;html=1;rotation=-90;" parent="1" vertex="1">
          <mxGeometry x="-120" y="310" width="320" height="60" as="geometry" />
        </mxCell>
        <mxCell id="fZSX2Tx-VuzL_oRfiSZg-43" value="&lt;font style=&quot;font-size: 20px;&quot;&gt;Party 1&lt;/font&gt;" style="rounded=0;whiteSpace=wrap;html=1;rotation=-90;strokeColor=#D6B656;strokeWidth=2;" parent="1" vertex="1">
          <mxGeometry x="60" y="230" width="115" height="60" as="geometry" />
        </mxCell>
        <mxCell id="fZSX2Tx-VuzL_oRfiSZg-44" value="&lt;font style=&quot;font-size: 20px;&quot;&gt;Party 2&lt;/font&gt;" style="rounded=0;whiteSpace=wrap;html=1;rotation=-90;" parent="1" vertex="1">
          <mxGeometry x="60" y="390" width="115" height="60" as="geometry" />
        </mxCell>
        <mxCell id="fZSX2Tx-VuzL_oRfiSZg-105" value="" style="ellipse;whiteSpace=wrap;html=1;aspect=fixed;strokeColor=#99CCFF;fillColor=#99CCFF;" parent="1" vertex="1">
          <mxGeometry x="1260" y="757" width="40" height="40" as="geometry" />
        </mxCell>
        <mxCell id="fZSX2Tx-VuzL_oRfiSZg-106" value="" style="ellipse;whiteSpace=wrap;html=1;aspect=fixed;strokeColor=#99CCFF;fillColor=#99CCFF;" parent="1" vertex="1">
          <mxGeometry x="1260" y="997" width="40" height="40" as="geometry" />
        </mxCell>
        <mxCell id="fZSX2Tx-VuzL_oRfiSZg-107" value="" style="ellipse;whiteSpace=wrap;html=1;aspect=fixed;strokeColor=#99CCFF;fillColor=#99CCFF;" parent="1" vertex="1">
          <mxGeometry x="1260" y="917" width="40" height="40" as="geometry" />
        </mxCell>
        <mxCell id="fZSX2Tx-VuzL_oRfiSZg-108" value="" style="ellipse;whiteSpace=wrap;html=1;aspect=fixed;strokeColor=#99CCFF;fillColor=#99CCFF;" parent="1" vertex="1">
          <mxGeometry x="1260" y="837" width="40" height="40" as="geometry" />
        </mxCell>
        <mxCell id="fZSX2Tx-VuzL_oRfiSZg-109" value="" style="ellipse;whiteSpace=wrap;html=1;aspect=fixed;strokeColor=#FF3333;fillColor=#FF3333;" parent="1" vertex="1">
          <mxGeometry x="1500" y="759" width="40" height="40" as="geometry" />
        </mxCell>
        <mxCell id="fZSX2Tx-VuzL_oRfiSZg-110" value="" style="ellipse;whiteSpace=wrap;html=1;aspect=fixed;strokeColor=#FF3333;fillColor=#FF3333;" parent="1" vertex="1">
          <mxGeometry x="1500" y="839" width="40" height="40" as="geometry" />
        </mxCell>
        <mxCell id="fZSX2Tx-VuzL_oRfiSZg-119" style="rounded=0;orthogonalLoop=1;jettySize=auto;html=1;exitX=1;exitY=0.5;exitDx=0;exitDy=0;entryX=0;entryY=0.5;entryDx=0;entryDy=0;endArrow=none;startFill=0;" parent="1" source="fZSX2Tx-VuzL_oRfiSZg-105" target="fZSX2Tx-VuzL_oRfiSZg-109" edge="1">
          <mxGeometry relative="1" as="geometry">
            <mxPoint x="1360" y="780" as="sourcePoint" />
            <mxPoint x="1480" y="774" as="targetPoint" />
          </mxGeometry>
        </mxCell>
        <mxCell id="fZSX2Tx-VuzL_oRfiSZg-120" style="rounded=0;orthogonalLoop=1;jettySize=auto;html=1;exitX=1;exitY=0.5;exitDx=0;exitDy=0;entryX=0;entryY=0.5;entryDx=0;entryDy=0;endArrow=none;startFill=0;" parent="1" source="fZSX2Tx-VuzL_oRfiSZg-105" target="fZSX2Tx-VuzL_oRfiSZg-110" edge="1">
          <mxGeometry relative="1" as="geometry">
            <mxPoint x="1310" y="791" as="sourcePoint" />
            <mxPoint x="1430" y="867" as="targetPoint" />
          </mxGeometry>
        </mxCell>
        <mxCell id="fZSX2Tx-VuzL_oRfiSZg-121" style="rounded=0;orthogonalLoop=1;jettySize=auto;html=1;exitX=1;exitY=0.5;exitDx=0;exitDy=0;entryX=0;entryY=0.5;entryDx=0;entryDy=0;endArrow=none;startFill=0;" parent="1" source="fZSX2Tx-VuzL_oRfiSZg-108" target="fZSX2Tx-VuzL_oRfiSZg-109" edge="1">
          <mxGeometry relative="1" as="geometry">
            <mxPoint x="1310" y="791" as="sourcePoint" />
            <mxPoint x="1430" y="947" as="targetPoint" />
          </mxGeometry>
        </mxCell>
        <mxCell id="fZSX2Tx-VuzL_oRfiSZg-122" style="rounded=0;orthogonalLoop=1;jettySize=auto;html=1;exitX=1;exitY=0.5;exitDx=0;exitDy=0;entryX=0;entryY=0.5;entryDx=0;entryDy=0;endArrow=none;startFill=0;" parent="1" source="fZSX2Tx-VuzL_oRfiSZg-108" target="fZSX2Tx-VuzL_oRfiSZg-110" edge="1">
          <mxGeometry relative="1" as="geometry">
            <mxPoint x="1310" y="871" as="sourcePoint" />
            <mxPoint x="1430" y="867" as="targetPoint" />
          </mxGeometry>
        </mxCell>
        <mxCell id="fZSX2Tx-VuzL_oRfiSZg-123" style="rounded=0;orthogonalLoop=1;jettySize=auto;html=1;exitX=1;exitY=0.5;exitDx=0;exitDy=0;entryX=0;entryY=0.5;entryDx=0;entryDy=0;endArrow=none;startFill=0;" parent="1" source="fZSX2Tx-VuzL_oRfiSZg-107" target="fZSX2Tx-VuzL_oRfiSZg-109" edge="1">
          <mxGeometry relative="1" as="geometry">
            <mxPoint x="1310" y="871" as="sourcePoint" />
            <mxPoint x="1430" y="947" as="targetPoint" />
          </mxGeometry>
        </mxCell>
        <mxCell id="fZSX2Tx-VuzL_oRfiSZg-124" style="rounded=0;orthogonalLoop=1;jettySize=auto;html=1;exitX=1;exitY=0.5;exitDx=0;exitDy=0;endArrow=none;startFill=0;entryX=0;entryY=0.5;entryDx=0;entryDy=0;" parent="1" source="fZSX2Tx-VuzL_oRfiSZg-107" target="fZSX2Tx-VuzL_oRfiSZg-110" edge="1">
          <mxGeometry relative="1" as="geometry">
            <mxPoint x="1310" y="941" as="sourcePoint" />
            <mxPoint x="1420" y="937" as="targetPoint" />
          </mxGeometry>
        </mxCell>
        <mxCell id="fZSX2Tx-VuzL_oRfiSZg-125" style="rounded=0;orthogonalLoop=1;jettySize=auto;html=1;exitX=1;exitY=0.5;exitDx=0;exitDy=0;entryX=0;entryY=0.5;entryDx=0;entryDy=0;endArrow=none;startFill=0;" parent="1" source="fZSX2Tx-VuzL_oRfiSZg-106" target="fZSX2Tx-VuzL_oRfiSZg-110" edge="1">
          <mxGeometry relative="1" as="geometry">
            <mxPoint x="1320" y="951" as="sourcePoint" />
            <mxPoint x="1440" y="877" as="targetPoint" />
          </mxGeometry>
        </mxCell>
        <mxCell id="fZSX2Tx-VuzL_oRfiSZg-126" style="rounded=0;orthogonalLoop=1;jettySize=auto;html=1;exitX=1;exitY=0.5;exitDx=0;exitDy=0;entryX=0;entryY=0.5;entryDx=0;entryDy=0;endArrow=none;startFill=0;" parent="1" source="fZSX2Tx-VuzL_oRfiSZg-106" target="fZSX2Tx-VuzL_oRfiSZg-109" edge="1">
          <mxGeometry relative="1" as="geometry">
            <mxPoint x="1310" y="1031" as="sourcePoint" />
            <mxPoint x="1430" y="947" as="targetPoint" />
          </mxGeometry>
        </mxCell>
        <mxCell id="fZSX2Tx-VuzL_oRfiSZg-135" value="&lt;font style=&quot;font-size: 28px;&quot;&gt;Inputs&lt;/font&gt;" style="text;html=1;align=center;verticalAlign=middle;whiteSpace=wrap;rounded=0;" parent="1" vertex="1">
          <mxGeometry x="150" y="70" width="60" height="30" as="geometry" />
        </mxCell>
        <mxCell id="fZSX2Tx-VuzL_oRfiSZg-136" value="&lt;font style=&quot;font-size: 28px;&quot;&gt;Hidden Layer&lt;/font&gt;" style="text;html=1;align=center;verticalAlign=middle;whiteSpace=wrap;rounded=0;" parent="1" vertex="1">
          <mxGeometry x="280" y="70" width="200" height="30" as="geometry" />
        </mxCell>
        <mxCell id="fZSX2Tx-VuzL_oRfiSZg-137" value="&lt;font style=&quot;font-size: 28px;&quot;&gt;Outputs&lt;/font&gt;" style="text;html=1;align=center;verticalAlign=middle;whiteSpace=wrap;rounded=0;" parent="1" vertex="1">
          <mxGeometry x="485" y="70" width="190" height="30" as="geometry" />
        </mxCell>
        <mxCell id="fZSX2Tx-VuzL_oRfiSZg-139" value="&lt;span style=&quot;font-size: 28px;&quot;&gt;Global Model&lt;/span&gt;" style="text;html=1;align=center;verticalAlign=middle;whiteSpace=wrap;rounded=0;" parent="1" vertex="1">
          <mxGeometry x="1479" y="460.5" width="190" height="30" as="geometry" />
        </mxCell>
        <mxCell id="fZSX2Tx-VuzL_oRfiSZg-149" value="" style="ellipse;whiteSpace=wrap;html=1;aspect=fixed;strokeColor=#4D4D4D;fillColor=#4D4D4D;" parent="1" vertex="1">
          <mxGeometry x="167" y="1360" width="40" height="40" as="geometry" />
        </mxCell>
        <mxCell id="fZSX2Tx-VuzL_oRfiSZg-151" value="" style="ellipse;whiteSpace=wrap;html=1;aspect=fixed;strokeColor=#3333FF;fillColor=#3333FF;" parent="1" vertex="1">
          <mxGeometry x="167" y="1200" width="40" height="40" as="geometry" />
        </mxCell>
        <mxCell id="fZSX2Tx-VuzL_oRfiSZg-152" value="" style="ellipse;whiteSpace=wrap;html=1;aspect=fixed;strokeColor=#3333FF;fillColor=#3333FF;" parent="1" vertex="1">
          <mxGeometry x="167" y="1280" width="40" height="40" as="geometry" />
        </mxCell>
        <mxCell id="fZSX2Tx-VuzL_oRfiSZg-153" value="" style="ellipse;whiteSpace=wrap;html=1;aspect=fixed;strokeColor=#4D4D4D;fillColor=#4D4D4D;" parent="1" vertex="1">
          <mxGeometry x="167" y="1440" width="40" height="40" as="geometry" />
        </mxCell>
        <mxCell id="fZSX2Tx-VuzL_oRfiSZg-155" value="" style="ellipse;whiteSpace=wrap;html=1;aspect=fixed;strokeColor=#3333FF;fillColor=#3333FF;" parent="1" vertex="1">
          <mxGeometry x="367" y="1320" width="40" height="40" as="geometry" />
        </mxCell>
        <mxCell id="fZSX2Tx-VuzL_oRfiSZg-156" value="" style="ellipse;whiteSpace=wrap;html=1;aspect=fixed;strokeColor=#3333FF;fillColor=#3333FF;" parent="1" vertex="1">
          <mxGeometry x="367" y="1240" width="40" height="40" as="geometry" />
        </mxCell>
        <mxCell id="fZSX2Tx-VuzL_oRfiSZg-158" value="" style="ellipse;whiteSpace=wrap;html=1;aspect=fixed;strokeColor=#4D4D4D;fillColor=#4D4D4D;" parent="1" vertex="1">
          <mxGeometry x="367" y="1400" width="40" height="40" as="geometry" />
        </mxCell>
        <mxCell id="fZSX2Tx-VuzL_oRfiSZg-159" value="" style="ellipse;whiteSpace=wrap;html=1;aspect=fixed;strokeColor=#CC0000;fillColor=#CC0000;" parent="1" vertex="1">
          <mxGeometry x="567" y="1280" width="40" height="40" as="geometry" />
        </mxCell>
        <mxCell id="fZSX2Tx-VuzL_oRfiSZg-160" value="" style="ellipse;whiteSpace=wrap;html=1;aspect=fixed;strokeColor=#CC0000;fillColor=#CC0000;" parent="1" vertex="1">
          <mxGeometry x="567" y="1360" width="40" height="40" as="geometry" />
        </mxCell>
        <mxCell id="fZSX2Tx-VuzL_oRfiSZg-161" style="rounded=0;orthogonalLoop=1;jettySize=auto;html=1;exitX=1;exitY=0.5;exitDx=0;exitDy=0;entryX=0;entryY=0.5;entryDx=0;entryDy=0;endArrow=none;startFill=0;" parent="1" source="fZSX2Tx-VuzL_oRfiSZg-151" target="fZSX2Tx-VuzL_oRfiSZg-156" edge="1">
          <mxGeometry relative="1" as="geometry">
            <mxPoint x="217" y="1230" as="sourcePoint" />
            <mxPoint x="337" y="1190" as="targetPoint" />
          </mxGeometry>
        </mxCell>
        <mxCell id="fZSX2Tx-VuzL_oRfiSZg-162" style="rounded=0;orthogonalLoop=1;jettySize=auto;html=1;exitX=1;exitY=0.5;exitDx=0;exitDy=0;entryX=0;entryY=0.5;entryDx=0;entryDy=0;endArrow=none;startFill=0;" parent="1" source="fZSX2Tx-VuzL_oRfiSZg-151" target="fZSX2Tx-VuzL_oRfiSZg-155" edge="1">
          <mxGeometry relative="1" as="geometry">
            <mxPoint x="217" y="1230" as="sourcePoint" />
            <mxPoint x="337" y="1270" as="targetPoint" />
          </mxGeometry>
        </mxCell>
        <mxCell id="fZSX2Tx-VuzL_oRfiSZg-165" style="rounded=0;orthogonalLoop=1;jettySize=auto;html=1;exitX=1;exitY=0.5;exitDx=0;exitDy=0;entryX=0;entryY=0.5;entryDx=0;entryDy=0;endArrow=none;startFill=0;" parent="1" source="fZSX2Tx-VuzL_oRfiSZg-151" target="fZSX2Tx-VuzL_oRfiSZg-158" edge="1">
          <mxGeometry relative="1" as="geometry">
            <mxPoint x="237" y="1250" as="sourcePoint" />
            <mxPoint x="357" y="1370" as="targetPoint" />
          </mxGeometry>
        </mxCell>
        <mxCell id="fZSX2Tx-VuzL_oRfiSZg-166" style="rounded=0;orthogonalLoop=1;jettySize=auto;html=1;exitX=0;exitY=0.5;exitDx=0;exitDy=0;entryX=1;entryY=0.5;entryDx=0;entryDy=0;endArrow=none;startFill=0;" parent="1" source="fZSX2Tx-VuzL_oRfiSZg-156" target="fZSX2Tx-VuzL_oRfiSZg-149" edge="1">
          <mxGeometry relative="1" as="geometry">
            <mxPoint x="247" y="1260" as="sourcePoint" />
            <mxPoint x="367" y="1380" as="targetPoint" />
          </mxGeometry>
        </mxCell>
        <mxCell id="fZSX2Tx-VuzL_oRfiSZg-168" style="rounded=0;orthogonalLoop=1;jettySize=auto;html=1;exitX=0;exitY=0.5;exitDx=0;exitDy=0;entryX=1;entryY=0.5;entryDx=0;entryDy=0;endArrow=none;startFill=0;" parent="1" source="fZSX2Tx-VuzL_oRfiSZg-156" target="fZSX2Tx-VuzL_oRfiSZg-153" edge="1">
          <mxGeometry relative="1" as="geometry">
            <mxPoint x="337" y="1190" as="sourcePoint" />
            <mxPoint x="217" y="1470" as="targetPoint" />
          </mxGeometry>
        </mxCell>
        <mxCell id="fZSX2Tx-VuzL_oRfiSZg-170" style="rounded=0;orthogonalLoop=1;jettySize=auto;html=1;exitX=0;exitY=0.5;exitDx=0;exitDy=0;endArrow=none;startFill=0;entryX=1;entryY=0.5;entryDx=0;entryDy=0;" parent="1" source="fZSX2Tx-VuzL_oRfiSZg-155" target="fZSX2Tx-VuzL_oRfiSZg-153" edge="1">
          <mxGeometry relative="1" as="geometry">
            <mxPoint x="347" y="1280" as="sourcePoint" />
            <mxPoint x="207" y="1460" as="targetPoint" />
          </mxGeometry>
        </mxCell>
        <mxCell id="fZSX2Tx-VuzL_oRfiSZg-171" style="rounded=0;orthogonalLoop=1;jettySize=auto;html=1;exitX=0;exitY=0.5;exitDx=0;exitDy=0;entryX=1;entryY=0.5;entryDx=0;entryDy=0;endArrow=none;startFill=0;" parent="1" source="fZSX2Tx-VuzL_oRfiSZg-155" target="fZSX2Tx-VuzL_oRfiSZg-149" edge="1">
          <mxGeometry relative="1" as="geometry">
            <mxPoint x="337" y="1270" as="sourcePoint" />
            <mxPoint x="217" y="1390" as="targetPoint" />
          </mxGeometry>
        </mxCell>
        <mxCell id="fZSX2Tx-VuzL_oRfiSZg-173" style="rounded=0;orthogonalLoop=1;jettySize=auto;html=1;exitX=1;exitY=0.5;exitDx=0;exitDy=0;endArrow=none;startFill=0;entryX=0;entryY=0.5;entryDx=0;entryDy=0;" parent="1" source="fZSX2Tx-VuzL_oRfiSZg-152" target="fZSX2Tx-VuzL_oRfiSZg-156" edge="1">
          <mxGeometry relative="1" as="geometry">
            <mxPoint x="217" y="1310" as="sourcePoint" />
            <mxPoint x="337" y="1190" as="targetPoint" />
          </mxGeometry>
        </mxCell>
        <mxCell id="fZSX2Tx-VuzL_oRfiSZg-174" style="rounded=0;orthogonalLoop=1;jettySize=auto;html=1;exitX=1;exitY=0.5;exitDx=0;exitDy=0;endArrow=none;startFill=0;entryX=0;entryY=0.5;entryDx=0;entryDy=0;" parent="1" source="fZSX2Tx-VuzL_oRfiSZg-152" target="fZSX2Tx-VuzL_oRfiSZg-155" edge="1">
          <mxGeometry relative="1" as="geometry">
            <mxPoint x="217" y="1310" as="sourcePoint" />
            <mxPoint x="337" y="1270" as="targetPoint" />
          </mxGeometry>
        </mxCell>
        <mxCell id="fZSX2Tx-VuzL_oRfiSZg-175" style="rounded=0;orthogonalLoop=1;jettySize=auto;html=1;exitX=1;exitY=0.5;exitDx=0;exitDy=0;endArrow=none;startFill=0;entryX=0;entryY=0.5;entryDx=0;entryDy=0;" parent="1" source="fZSX2Tx-VuzL_oRfiSZg-152" target="fZSX2Tx-VuzL_oRfiSZg-158" edge="1">
          <mxGeometry relative="1" as="geometry">
            <mxPoint x="217" y="1310" as="sourcePoint" />
            <mxPoint x="337" y="1350" as="targetPoint" />
          </mxGeometry>
        </mxCell>
        <mxCell id="fZSX2Tx-VuzL_oRfiSZg-177" style="rounded=0;orthogonalLoop=1;jettySize=auto;html=1;endArrow=none;startFill=0;entryX=1;entryY=0.5;entryDx=0;entryDy=0;exitX=0;exitY=0.5;exitDx=0;exitDy=0;" parent="1" source="fZSX2Tx-VuzL_oRfiSZg-158" target="fZSX2Tx-VuzL_oRfiSZg-153" edge="1">
          <mxGeometry relative="1" as="geometry">
            <mxPoint x="337" y="1510" as="sourcePoint" />
            <mxPoint x="207" y="1460" as="targetPoint" />
          </mxGeometry>
        </mxCell>
        <mxCell id="fZSX2Tx-VuzL_oRfiSZg-178" style="rounded=0;orthogonalLoop=1;jettySize=auto;html=1;exitX=0;exitY=0.5;exitDx=0;exitDy=0;entryX=1;entryY=0.5;entryDx=0;entryDy=0;endArrow=none;startFill=0;" parent="1" source="fZSX2Tx-VuzL_oRfiSZg-158" target="fZSX2Tx-VuzL_oRfiSZg-149" edge="1">
          <mxGeometry relative="1" as="geometry">
            <mxPoint x="337" y="1350" as="sourcePoint" />
            <mxPoint x="217" y="1390" as="targetPoint" />
          </mxGeometry>
        </mxCell>
        <mxCell id="fZSX2Tx-VuzL_oRfiSZg-182" style="rounded=0;orthogonalLoop=1;jettySize=auto;html=1;exitX=1;exitY=0.5;exitDx=0;exitDy=0;entryX=0;entryY=0.5;entryDx=0;entryDy=0;endArrow=none;startFill=0;" parent="1" source="fZSX2Tx-VuzL_oRfiSZg-156" target="fZSX2Tx-VuzL_oRfiSZg-159" edge="1">
          <mxGeometry relative="1" as="geometry">
            <mxPoint x="417" y="1151" as="sourcePoint" />
            <mxPoint x="537" y="1351" as="targetPoint" />
          </mxGeometry>
        </mxCell>
        <mxCell id="fZSX2Tx-VuzL_oRfiSZg-183" style="rounded=0;orthogonalLoop=1;jettySize=auto;html=1;exitX=1;exitY=0.5;exitDx=0;exitDy=0;entryX=0;entryY=0.5;entryDx=0;entryDy=0;endArrow=none;startFill=0;" parent="1" source="fZSX2Tx-VuzL_oRfiSZg-156" target="fZSX2Tx-VuzL_oRfiSZg-160" edge="1">
          <mxGeometry relative="1" as="geometry">
            <mxPoint x="417" y="1231" as="sourcePoint" />
            <mxPoint x="537" y="1271" as="targetPoint" />
          </mxGeometry>
        </mxCell>
        <mxCell id="fZSX2Tx-VuzL_oRfiSZg-184" style="rounded=0;orthogonalLoop=1;jettySize=auto;html=1;exitX=1;exitY=0.5;exitDx=0;exitDy=0;entryX=0;entryY=0.5;entryDx=0;entryDy=0;endArrow=none;startFill=0;" parent="1" source="fZSX2Tx-VuzL_oRfiSZg-155" target="fZSX2Tx-VuzL_oRfiSZg-159" edge="1">
          <mxGeometry relative="1" as="geometry">
            <mxPoint x="417" y="1231" as="sourcePoint" />
            <mxPoint x="537" y="1351" as="targetPoint" />
          </mxGeometry>
        </mxCell>
        <mxCell id="fZSX2Tx-VuzL_oRfiSZg-185" style="rounded=0;orthogonalLoop=1;jettySize=auto;html=1;exitX=1;exitY=0.5;exitDx=0;exitDy=0;entryX=0;entryY=0.5;entryDx=0;entryDy=0;endArrow=none;startFill=0;" parent="1" source="fZSX2Tx-VuzL_oRfiSZg-158" target="fZSX2Tx-VuzL_oRfiSZg-160" edge="1">
          <mxGeometry relative="1" as="geometry">
            <mxPoint x="417" y="1311" as="sourcePoint" />
            <mxPoint x="537" y="1271" as="targetPoint" />
          </mxGeometry>
        </mxCell>
        <mxCell id="fZSX2Tx-VuzL_oRfiSZg-186" style="rounded=0;orthogonalLoop=1;jettySize=auto;html=1;exitX=1;exitY=0.5;exitDx=0;exitDy=0;entryX=0;entryY=0.5;entryDx=0;entryDy=0;endArrow=none;startFill=0;" parent="1" source="fZSX2Tx-VuzL_oRfiSZg-158" target="fZSX2Tx-VuzL_oRfiSZg-159" edge="1">
          <mxGeometry relative="1" as="geometry">
            <mxPoint x="417" y="1391" as="sourcePoint" />
            <mxPoint x="537" y="1351" as="targetPoint" />
          </mxGeometry>
        </mxCell>
        <mxCell id="fZSX2Tx-VuzL_oRfiSZg-187" style="rounded=0;orthogonalLoop=1;jettySize=auto;html=1;exitX=1;exitY=0.5;exitDx=0;exitDy=0;entryX=0;entryY=0.5;entryDx=0;entryDy=0;endArrow=none;startFill=0;" parent="1" source="fZSX2Tx-VuzL_oRfiSZg-155" target="fZSX2Tx-VuzL_oRfiSZg-160" edge="1">
          <mxGeometry relative="1" as="geometry">
            <mxPoint x="417" y="1311" as="sourcePoint" />
            <mxPoint x="537" y="1271" as="targetPoint" />
          </mxGeometry>
        </mxCell>
        <mxCell id="fZSX2Tx-VuzL_oRfiSZg-190" value="&lt;font style=&quot;font-size: 18px;&quot;&gt;Shared Model &lt;i&gt;3&lt;/i&gt;&lt;/font&gt;" style="rounded=0;whiteSpace=wrap;html=1;rotation=-90;" parent="1" vertex="1">
          <mxGeometry x="-113" y="1310" width="320" height="60" as="geometry" />
        </mxCell>
        <mxCell id="fZSX2Tx-VuzL_oRfiSZg-191" value="&lt;font style=&quot;font-size: 20px;&quot;&gt;Party 1&lt;/font&gt;" style="rounded=0;whiteSpace=wrap;html=1;rotation=-90;" parent="1" vertex="1">
          <mxGeometry x="67" y="1230" width="115" height="60" as="geometry" />
        </mxCell>
        <mxCell id="akp7HB05Ez-BgF-G3p8F-1" value="" style="ellipse;whiteSpace=wrap;html=1;aspect=fixed;strokeColor=#99CCFF;fillColor=#99CCFF;" parent="1" vertex="1">
          <mxGeometry x="1040" y="637" width="40" height="40" as="geometry" />
        </mxCell>
        <mxCell id="akp7HB05Ez-BgF-G3p8F-2" value="" style="ellipse;whiteSpace=wrap;html=1;aspect=fixed;strokeColor=#99CCFF;fillColor=#99CCFF;" parent="1" vertex="1">
          <mxGeometry x="1040" y="717" width="40" height="40" as="geometry" />
        </mxCell>
        <mxCell id="akp7HB05Ez-BgF-G3p8F-3" value="" style="ellipse;whiteSpace=wrap;html=1;aspect=fixed;strokeColor=#99CCFF;fillColor=#99CCFF;" parent="1" vertex="1">
          <mxGeometry x="1040" y="1117" width="40" height="40" as="geometry" />
        </mxCell>
        <mxCell id="akp7HB05Ez-BgF-G3p8F-6" value="" style="ellipse;whiteSpace=wrap;html=1;aspect=fixed;strokeColor=#99CCFF;fillColor=#99CCFF;" parent="1" vertex="1">
          <mxGeometry x="1040" y="1037" width="40" height="40" as="geometry" />
        </mxCell>
        <mxCell id="akp7HB05Ez-BgF-G3p8F-7" value="" style="ellipse;whiteSpace=wrap;html=1;aspect=fixed;strokeColor=#99CCFF;fillColor=#99CCFF;" parent="1" vertex="1">
          <mxGeometry x="1040" y="478" width="40" height="40" as="geometry" />
        </mxCell>
        <mxCell id="akp7HB05Ez-BgF-G3p8F-8" value="" style="ellipse;whiteSpace=wrap;html=1;aspect=fixed;strokeColor=#99CCFF;fillColor=#99CCFF;" parent="1" vertex="1">
          <mxGeometry x="1040" y="558" width="40" height="40" as="geometry" />
        </mxCell>
        <mxCell id="akp7HB05Ez-BgF-G3p8F-9" value="&lt;font style=&quot;font-size: 20px;&quot;&gt;Party 4&lt;/font&gt;" style="rounded=0;whiteSpace=wrap;html=1;rotation=-90;" parent="1" vertex="1">
          <mxGeometry x="67" y="1390" width="115" height="60" as="geometry" />
        </mxCell>
        <mxCell id="akp7HB05Ez-BgF-G3p8F-18" value="" style="shape=cylinder3;whiteSpace=wrap;html=1;boundedLbl=1;backgroundOutline=1;size=15;" parent="1" vertex="1">
          <mxGeometry x="760" y="300" width="60" height="80" as="geometry" />
        </mxCell>
        <mxCell id="akp7HB05Ez-BgF-G3p8F-31" value="" style="shape=cylinder3;whiteSpace=wrap;html=1;boundedLbl=1;backgroundOutline=1;size=15;" parent="1" vertex="1">
          <mxGeometry x="767" y="1300" width="60" height="80" as="geometry" />
        </mxCell>
        <mxCell id="akp7HB05Ez-BgF-G3p8F-44" value="" style="ellipse;whiteSpace=wrap;html=1;aspect=fixed;strokeColor=#99CCFF;fillColor=#99CCFF;" parent="1" vertex="1">
          <mxGeometry x="1260" y="597" width="40" height="40" as="geometry" />
        </mxCell>
        <mxCell id="akp7HB05Ez-BgF-G3p8F-45" value="" style="ellipse;whiteSpace=wrap;html=1;aspect=fixed;strokeColor=#99CCFF;fillColor=#99CCFF;" parent="1" vertex="1">
          <mxGeometry x="1260" y="677" width="40" height="40" as="geometry" />
        </mxCell>
        <mxCell id="akp7HB05Ez-BgF-G3p8F-46" style="rounded=0;orthogonalLoop=1;jettySize=auto;html=1;endArrow=none;startFill=0;entryX=1;entryY=0.5;entryDx=0;entryDy=0;exitX=0;exitY=0.5;exitDx=0;exitDy=0;" parent="1" source="akp7HB05Ez-BgF-G3p8F-44" target="akp7HB05Ez-BgF-G3p8F-7" edge="1">
          <mxGeometry relative="1" as="geometry">
            <mxPoint x="1490" y="575" as="sourcePoint" />
            <mxPoint x="1270" y="421" as="targetPoint" />
          </mxGeometry>
        </mxCell>
        <mxCell id="akp7HB05Ez-BgF-G3p8F-47" style="rounded=0;orthogonalLoop=1;jettySize=auto;html=1;endArrow=none;startFill=0;entryX=1;entryY=0.5;entryDx=0;entryDy=0;exitX=0;exitY=0.5;exitDx=0;exitDy=0;" parent="1" source="akp7HB05Ez-BgF-G3p8F-44" target="akp7HB05Ez-BgF-G3p8F-8" edge="1">
          <mxGeometry relative="1" as="geometry">
            <mxPoint x="1210" y="587" as="sourcePoint" />
            <mxPoint x="1090" y="508" as="targetPoint" />
          </mxGeometry>
        </mxCell>
        <mxCell id="akp7HB05Ez-BgF-G3p8F-48" style="rounded=0;orthogonalLoop=1;jettySize=auto;html=1;endArrow=none;startFill=0;entryX=1;entryY=0.5;entryDx=0;entryDy=0;exitX=0;exitY=0.5;exitDx=0;exitDy=0;" parent="1" source="akp7HB05Ez-BgF-G3p8F-44" target="akp7HB05Ez-BgF-G3p8F-1" edge="1">
          <mxGeometry relative="1" as="geometry">
            <mxPoint x="1210" y="587" as="sourcePoint" />
            <mxPoint x="1090" y="588" as="targetPoint" />
          </mxGeometry>
        </mxCell>
        <mxCell id="akp7HB05Ez-BgF-G3p8F-49" style="rounded=0;orthogonalLoop=1;jettySize=auto;html=1;endArrow=none;startFill=0;entryX=1;entryY=0.5;entryDx=0;entryDy=0;exitX=0;exitY=0.5;exitDx=0;exitDy=0;" parent="1" source="akp7HB05Ez-BgF-G3p8F-44" target="akp7HB05Ez-BgF-G3p8F-2" edge="1">
          <mxGeometry relative="1" as="geometry">
            <mxPoint x="1210" y="587" as="sourcePoint" />
            <mxPoint x="1090" y="667" as="targetPoint" />
          </mxGeometry>
        </mxCell>
        <mxCell id="akp7HB05Ez-BgF-G3p8F-53" style="rounded=0;orthogonalLoop=1;jettySize=auto;html=1;endArrow=none;startFill=0;entryX=1;entryY=0.5;entryDx=0;entryDy=0;exitX=0;exitY=0.5;exitDx=0;exitDy=0;" parent="1" source="akp7HB05Ez-BgF-G3p8F-44" target="akp7HB05Ez-BgF-G3p8F-6" edge="1">
          <mxGeometry relative="1" as="geometry">
            <mxPoint x="1230" y="607" as="sourcePoint" />
            <mxPoint x="1110" y="847" as="targetPoint" />
          </mxGeometry>
        </mxCell>
        <mxCell id="akp7HB05Ez-BgF-G3p8F-54" style="rounded=0;orthogonalLoop=1;jettySize=auto;html=1;endArrow=none;startFill=0;entryX=1;entryY=0.5;entryDx=0;entryDy=0;exitX=0;exitY=0.5;exitDx=0;exitDy=0;" parent="1" source="akp7HB05Ez-BgF-G3p8F-44" target="akp7HB05Ez-BgF-G3p8F-3" edge="1">
          <mxGeometry relative="1" as="geometry">
            <mxPoint x="1240" y="617" as="sourcePoint" />
            <mxPoint x="1120" y="857" as="targetPoint" />
          </mxGeometry>
        </mxCell>
        <mxCell id="akp7HB05Ez-BgF-G3p8F-55" style="rounded=0;orthogonalLoop=1;jettySize=auto;html=1;endArrow=none;startFill=0;entryX=1;entryY=0.5;entryDx=0;entryDy=0;exitX=0;exitY=0.5;exitDx=0;exitDy=0;" parent="1" source="akp7HB05Ez-BgF-G3p8F-45" target="akp7HB05Ez-BgF-G3p8F-7" edge="1">
          <mxGeometry relative="1" as="geometry">
            <mxPoint x="1250" y="627" as="sourcePoint" />
            <mxPoint x="1130" y="867" as="targetPoint" />
          </mxGeometry>
        </mxCell>
        <mxCell id="akp7HB05Ez-BgF-G3p8F-56" style="rounded=0;orthogonalLoop=1;jettySize=auto;html=1;endArrow=none;startFill=0;entryX=1;entryY=0.5;entryDx=0;entryDy=0;exitX=0;exitY=0.5;exitDx=0;exitDy=0;" parent="1" source="fZSX2Tx-VuzL_oRfiSZg-105" target="akp7HB05Ez-BgF-G3p8F-7" edge="1">
          <mxGeometry relative="1" as="geometry">
            <mxPoint x="1270" y="667" as="sourcePoint" />
            <mxPoint x="1090" y="508" as="targetPoint" />
          </mxGeometry>
        </mxCell>
        <mxCell id="akp7HB05Ez-BgF-G3p8F-57" style="rounded=0;orthogonalLoop=1;jettySize=auto;html=1;endArrow=none;startFill=0;entryX=1;entryY=0.5;entryDx=0;entryDy=0;exitX=0;exitY=0.5;exitDx=0;exitDy=0;" parent="1" source="fZSX2Tx-VuzL_oRfiSZg-108" target="akp7HB05Ez-BgF-G3p8F-7" edge="1">
          <mxGeometry relative="1" as="geometry">
            <mxPoint x="1270" y="747" as="sourcePoint" />
            <mxPoint x="1090" y="508" as="targetPoint" />
          </mxGeometry>
        </mxCell>
        <mxCell id="akp7HB05Ez-BgF-G3p8F-58" style="rounded=0;orthogonalLoop=1;jettySize=auto;html=1;endArrow=none;startFill=0;entryX=1;entryY=0.5;entryDx=0;entryDy=0;exitX=0;exitY=0.5;exitDx=0;exitDy=0;" parent="1" source="fZSX2Tx-VuzL_oRfiSZg-107" target="akp7HB05Ez-BgF-G3p8F-7" edge="1">
          <mxGeometry relative="1" as="geometry">
            <mxPoint x="1270" y="827" as="sourcePoint" />
            <mxPoint x="1090" y="508" as="targetPoint" />
          </mxGeometry>
        </mxCell>
        <mxCell id="akp7HB05Ez-BgF-G3p8F-59" style="rounded=0;orthogonalLoop=1;jettySize=auto;html=1;endArrow=none;startFill=0;entryX=1;entryY=0.5;entryDx=0;entryDy=0;exitX=0;exitY=0.5;exitDx=0;exitDy=0;" parent="1" source="fZSX2Tx-VuzL_oRfiSZg-106" target="akp7HB05Ez-BgF-G3p8F-7" edge="1">
          <mxGeometry relative="1" as="geometry">
            <mxPoint x="1270" y="907" as="sourcePoint" />
            <mxPoint x="1090" y="508" as="targetPoint" />
          </mxGeometry>
        </mxCell>
        <mxCell id="akp7HB05Ez-BgF-G3p8F-61" style="rounded=0;orthogonalLoop=1;jettySize=auto;html=1;endArrow=none;startFill=0;entryX=1;entryY=0.5;entryDx=0;entryDy=0;exitX=0;exitY=0.5;exitDx=0;exitDy=0;" parent="1" source="akp7HB05Ez-BgF-G3p8F-45" target="akp7HB05Ez-BgF-G3p8F-8" edge="1">
          <mxGeometry relative="1" as="geometry">
            <mxPoint x="1270" y="987" as="sourcePoint" />
            <mxPoint x="1090" y="508" as="targetPoint" />
          </mxGeometry>
        </mxCell>
        <mxCell id="akp7HB05Ez-BgF-G3p8F-62" style="rounded=0;orthogonalLoop=1;jettySize=auto;html=1;endArrow=none;startFill=0;entryX=1;entryY=0.5;entryDx=0;entryDy=0;exitX=0;exitY=0.5;exitDx=0;exitDy=0;" parent="1" source="fZSX2Tx-VuzL_oRfiSZg-105" target="akp7HB05Ez-BgF-G3p8F-1" edge="1">
          <mxGeometry relative="1" as="geometry">
            <mxPoint x="1270" y="667" as="sourcePoint" />
            <mxPoint x="1090" y="588" as="targetPoint" />
          </mxGeometry>
        </mxCell>
        <mxCell id="akp7HB05Ez-BgF-G3p8F-63" style="rounded=0;orthogonalLoop=1;jettySize=auto;html=1;endArrow=none;startFill=0;entryX=1;entryY=0.5;entryDx=0;entryDy=0;exitX=0;exitY=0.5;exitDx=0;exitDy=0;" parent="1" source="fZSX2Tx-VuzL_oRfiSZg-105" target="akp7HB05Ez-BgF-G3p8F-2" edge="1">
          <mxGeometry relative="1" as="geometry">
            <mxPoint x="1270" y="747" as="sourcePoint" />
            <mxPoint x="1090" y="667" as="targetPoint" />
          </mxGeometry>
        </mxCell>
        <mxCell id="akp7HB05Ez-BgF-G3p8F-65" style="rounded=0;orthogonalLoop=1;jettySize=auto;html=1;endArrow=none;startFill=0;entryX=1;entryY=0.5;entryDx=0;entryDy=0;exitX=0;exitY=0.5;exitDx=0;exitDy=0;" parent="1" source="fZSX2Tx-VuzL_oRfiSZg-108" target="akp7HB05Ez-BgF-G3p8F-2" edge="1">
          <mxGeometry relative="1" as="geometry">
            <mxPoint x="1280" y="757" as="sourcePoint" />
            <mxPoint x="1100" y="757" as="targetPoint" />
          </mxGeometry>
        </mxCell>
        <mxCell id="akp7HB05Ez-BgF-G3p8F-66" style="rounded=0;orthogonalLoop=1;jettySize=auto;html=1;endArrow=none;startFill=0;entryX=1;entryY=0.5;entryDx=0;entryDy=0;exitX=0;exitY=0.5;exitDx=0;exitDy=0;" parent="1" source="fZSX2Tx-VuzL_oRfiSZg-107" target="akp7HB05Ez-BgF-G3p8F-2" edge="1">
          <mxGeometry relative="1" as="geometry">
            <mxPoint x="1270" y="827" as="sourcePoint" />
            <mxPoint x="1090" y="747" as="targetPoint" />
          </mxGeometry>
        </mxCell>
        <mxCell id="akp7HB05Ez-BgF-G3p8F-67" style="rounded=0;orthogonalLoop=1;jettySize=auto;html=1;endArrow=none;startFill=0;entryX=1;entryY=0.5;entryDx=0;entryDy=0;exitX=0;exitY=0.5;exitDx=0;exitDy=0;" parent="1" source="fZSX2Tx-VuzL_oRfiSZg-106" target="akp7HB05Ez-BgF-G3p8F-2" edge="1">
          <mxGeometry relative="1" as="geometry">
            <mxPoint x="1270" y="907" as="sourcePoint" />
            <mxPoint x="1090" y="747" as="targetPoint" />
          </mxGeometry>
        </mxCell>
        <mxCell id="akp7HB05Ez-BgF-G3p8F-76" style="rounded=0;orthogonalLoop=1;jettySize=auto;html=1;exitX=1;exitY=0.5;exitDx=0;exitDy=0;entryX=0;entryY=0.5;entryDx=0;entryDy=0;endArrow=none;startFill=0;" parent="1" source="akp7HB05Ez-BgF-G3p8F-6" target="fZSX2Tx-VuzL_oRfiSZg-106" edge="1">
          <mxGeometry relative="1" as="geometry">
            <mxPoint x="1090" y="987" as="sourcePoint" />
            <mxPoint x="1270" y="987" as="targetPoint" />
          </mxGeometry>
        </mxCell>
        <mxCell id="akp7HB05Ez-BgF-G3p8F-77" style="rounded=0;orthogonalLoop=1;jettySize=auto;html=1;exitX=1;exitY=0.5;exitDx=0;exitDy=0;entryX=0;entryY=0.5;entryDx=0;entryDy=0;endArrow=none;startFill=0;" parent="1" source="akp7HB05Ez-BgF-G3p8F-6" target="fZSX2Tx-VuzL_oRfiSZg-107" edge="1">
          <mxGeometry relative="1" as="geometry">
            <mxPoint x="1090" y="1067" as="sourcePoint" />
            <mxPoint x="1270" y="987" as="targetPoint" />
          </mxGeometry>
        </mxCell>
        <mxCell id="akp7HB05Ez-BgF-G3p8F-78" style="rounded=0;orthogonalLoop=1;jettySize=auto;html=1;exitX=1;exitY=0.5;exitDx=0;exitDy=0;entryX=0;entryY=0.5;entryDx=0;entryDy=0;endArrow=none;startFill=0;" parent="1" source="akp7HB05Ez-BgF-G3p8F-6" target="fZSX2Tx-VuzL_oRfiSZg-108" edge="1">
          <mxGeometry relative="1" as="geometry">
            <mxPoint x="1090" y="1067" as="sourcePoint" />
            <mxPoint x="1270" y="907" as="targetPoint" />
          </mxGeometry>
        </mxCell>
        <mxCell id="akp7HB05Ez-BgF-G3p8F-79" style="rounded=0;orthogonalLoop=1;jettySize=auto;html=1;exitX=1;exitY=0.5;exitDx=0;exitDy=0;entryX=0;entryY=0.5;entryDx=0;entryDy=0;endArrow=none;startFill=0;" parent="1" source="akp7HB05Ez-BgF-G3p8F-6" target="fZSX2Tx-VuzL_oRfiSZg-105" edge="1">
          <mxGeometry relative="1" as="geometry">
            <mxPoint x="1090" y="1067" as="sourcePoint" />
            <mxPoint x="1270" y="827" as="targetPoint" />
          </mxGeometry>
        </mxCell>
        <mxCell id="akp7HB05Ez-BgF-G3p8F-80" style="rounded=0;orthogonalLoop=1;jettySize=auto;html=1;exitX=1;exitY=0.5;exitDx=0;exitDy=0;entryX=0;entryY=0.5;entryDx=0;entryDy=0;endArrow=none;startFill=0;" parent="1" source="akp7HB05Ez-BgF-G3p8F-6" target="akp7HB05Ez-BgF-G3p8F-45" edge="1">
          <mxGeometry relative="1" as="geometry">
            <mxPoint x="1090" y="1067" as="sourcePoint" />
            <mxPoint x="1270" y="747" as="targetPoint" />
          </mxGeometry>
        </mxCell>
        <mxCell id="akp7HB05Ez-BgF-G3p8F-81" style="rounded=0;orthogonalLoop=1;jettySize=auto;html=1;exitX=1;exitY=0.5;exitDx=0;exitDy=0;entryX=0;entryY=0.5;entryDx=0;entryDy=0;endArrow=none;startFill=0;" parent="1" source="akp7HB05Ez-BgF-G3p8F-6" target="akp7HB05Ez-BgF-G3p8F-44" edge="1">
          <mxGeometry relative="1" as="geometry">
            <mxPoint x="1090" y="1067" as="sourcePoint" />
            <mxPoint x="1270" y="667" as="targetPoint" />
          </mxGeometry>
        </mxCell>
        <mxCell id="akp7HB05Ez-BgF-G3p8F-82" style="rounded=0;orthogonalLoop=1;jettySize=auto;html=1;endArrow=none;startFill=0;entryX=1;entryY=0.5;entryDx=0;entryDy=0;exitX=0;exitY=0.5;exitDx=0;exitDy=0;" parent="1" source="akp7HB05Ez-BgF-G3p8F-45" target="akp7HB05Ez-BgF-G3p8F-3" edge="1">
          <mxGeometry relative="1" as="geometry">
            <mxPoint x="1270" y="587" as="sourcePoint" />
            <mxPoint x="1090" y="1147" as="targetPoint" />
          </mxGeometry>
        </mxCell>
        <mxCell id="akp7HB05Ez-BgF-G3p8F-83" style="rounded=0;orthogonalLoop=1;jettySize=auto;html=1;endArrow=none;startFill=0;entryX=1;entryY=0.5;entryDx=0;entryDy=0;exitX=0;exitY=0.5;exitDx=0;exitDy=0;" parent="1" source="fZSX2Tx-VuzL_oRfiSZg-105" target="akp7HB05Ez-BgF-G3p8F-3" edge="1">
          <mxGeometry relative="1" as="geometry">
            <mxPoint x="1270" y="667" as="sourcePoint" />
            <mxPoint x="1090" y="1147" as="targetPoint" />
          </mxGeometry>
        </mxCell>
        <mxCell id="akp7HB05Ez-BgF-G3p8F-84" style="rounded=0;orthogonalLoop=1;jettySize=auto;html=1;endArrow=none;startFill=0;entryX=1;entryY=0.5;entryDx=0;entryDy=0;exitX=0;exitY=0.5;exitDx=0;exitDy=0;" parent="1" source="fZSX2Tx-VuzL_oRfiSZg-108" target="akp7HB05Ez-BgF-G3p8F-3" edge="1">
          <mxGeometry relative="1" as="geometry">
            <mxPoint x="1270" y="747" as="sourcePoint" />
            <mxPoint x="1090" y="1147" as="targetPoint" />
          </mxGeometry>
        </mxCell>
        <mxCell id="akp7HB05Ez-BgF-G3p8F-85" style="rounded=0;orthogonalLoop=1;jettySize=auto;html=1;endArrow=none;startFill=0;entryX=1;entryY=0.5;entryDx=0;entryDy=0;exitX=0;exitY=0.5;exitDx=0;exitDy=0;" parent="1" source="fZSX2Tx-VuzL_oRfiSZg-107" target="akp7HB05Ez-BgF-G3p8F-3" edge="1">
          <mxGeometry relative="1" as="geometry">
            <mxPoint x="1270" y="827" as="sourcePoint" />
            <mxPoint x="1090" y="1147" as="targetPoint" />
          </mxGeometry>
        </mxCell>
        <mxCell id="akp7HB05Ez-BgF-G3p8F-86" style="rounded=0;orthogonalLoop=1;jettySize=auto;html=1;endArrow=none;startFill=0;entryX=1;entryY=0.5;entryDx=0;entryDy=0;exitX=0;exitY=0.5;exitDx=0;exitDy=0;" parent="1" source="fZSX2Tx-VuzL_oRfiSZg-106" target="akp7HB05Ez-BgF-G3p8F-3" edge="1">
          <mxGeometry relative="1" as="geometry">
            <mxPoint x="1270" y="907" as="sourcePoint" />
            <mxPoint x="1090" y="1147" as="targetPoint" />
          </mxGeometry>
        </mxCell>
        <mxCell id="akp7HB05Ez-BgF-G3p8F-87" style="rounded=0;orthogonalLoop=1;jettySize=auto;html=1;endArrow=none;startFill=0;entryX=1;entryY=0.5;entryDx=0;entryDy=0;exitX=0;exitY=0.5;exitDx=0;exitDy=0;" parent="1" source="fZSX2Tx-VuzL_oRfiSZg-105" target="akp7HB05Ez-BgF-G3p8F-8" edge="1">
          <mxGeometry relative="1" as="geometry">
            <mxPoint x="1270" y="707" as="sourcePoint" />
            <mxPoint x="1090" y="588" as="targetPoint" />
          </mxGeometry>
        </mxCell>
        <mxCell id="akp7HB05Ez-BgF-G3p8F-88" style="rounded=0;orthogonalLoop=1;jettySize=auto;html=1;endArrow=none;startFill=0;entryX=1;entryY=0.5;entryDx=0;entryDy=0;exitX=0;exitY=0.5;exitDx=0;exitDy=0;" parent="1" source="fZSX2Tx-VuzL_oRfiSZg-108" target="akp7HB05Ez-BgF-G3p8F-8" edge="1">
          <mxGeometry relative="1" as="geometry">
            <mxPoint x="1270" y="787" as="sourcePoint" />
            <mxPoint x="1090" y="588" as="targetPoint" />
          </mxGeometry>
        </mxCell>
        <mxCell id="akp7HB05Ez-BgF-G3p8F-89" style="rounded=0;orthogonalLoop=1;jettySize=auto;html=1;endArrow=none;startFill=0;entryX=1;entryY=0.5;entryDx=0;entryDy=0;exitX=0;exitY=0.5;exitDx=0;exitDy=0;" parent="1" source="fZSX2Tx-VuzL_oRfiSZg-107" target="akp7HB05Ez-BgF-G3p8F-8" edge="1">
          <mxGeometry relative="1" as="geometry">
            <mxPoint x="1270" y="867" as="sourcePoint" />
            <mxPoint x="1090" y="588" as="targetPoint" />
          </mxGeometry>
        </mxCell>
        <mxCell id="akp7HB05Ez-BgF-G3p8F-90" style="rounded=0;orthogonalLoop=1;jettySize=auto;html=1;endArrow=none;startFill=0;entryX=1;entryY=0.5;entryDx=0;entryDy=0;exitX=0;exitY=0.5;exitDx=0;exitDy=0;" parent="1" source="fZSX2Tx-VuzL_oRfiSZg-106" target="akp7HB05Ez-BgF-G3p8F-8" edge="1">
          <mxGeometry relative="1" as="geometry">
            <mxPoint x="1270" y="947" as="sourcePoint" />
            <mxPoint x="1090" y="588" as="targetPoint" />
          </mxGeometry>
        </mxCell>
        <mxCell id="akp7HB05Ez-BgF-G3p8F-91" style="rounded=0;orthogonalLoop=1;jettySize=auto;html=1;endArrow=none;startFill=0;entryX=1;entryY=0.5;entryDx=0;entryDy=0;exitX=0;exitY=0.5;exitDx=0;exitDy=0;" parent="1" source="akp7HB05Ez-BgF-G3p8F-45" target="akp7HB05Ez-BgF-G3p8F-1" edge="1">
          <mxGeometry relative="1" as="geometry">
            <mxPoint x="1270" y="627" as="sourcePoint" />
            <mxPoint x="1090" y="667" as="targetPoint" />
          </mxGeometry>
        </mxCell>
        <mxCell id="akp7HB05Ez-BgF-G3p8F-92" style="rounded=0;orthogonalLoop=1;jettySize=auto;html=1;endArrow=none;startFill=0;entryX=1;entryY=0.5;entryDx=0;entryDy=0;exitX=0;exitY=0.5;exitDx=0;exitDy=0;" parent="1" source="fZSX2Tx-VuzL_oRfiSZg-108" target="akp7HB05Ez-BgF-G3p8F-1" edge="1">
          <mxGeometry relative="1" as="geometry">
            <mxPoint x="1270" y="707" as="sourcePoint" />
            <mxPoint x="1090" y="667" as="targetPoint" />
          </mxGeometry>
        </mxCell>
        <mxCell id="akp7HB05Ez-BgF-G3p8F-93" style="rounded=0;orthogonalLoop=1;jettySize=auto;html=1;endArrow=none;startFill=0;entryX=1;entryY=0.5;entryDx=0;entryDy=0;exitX=0;exitY=0.5;exitDx=0;exitDy=0;" parent="1" source="fZSX2Tx-VuzL_oRfiSZg-107" target="akp7HB05Ez-BgF-G3p8F-1" edge="1">
          <mxGeometry relative="1" as="geometry">
            <mxPoint x="1270" y="867" as="sourcePoint" />
            <mxPoint x="1090" y="667" as="targetPoint" />
          </mxGeometry>
        </mxCell>
        <mxCell id="akp7HB05Ez-BgF-G3p8F-94" style="rounded=0;orthogonalLoop=1;jettySize=auto;html=1;endArrow=none;startFill=0;entryX=1;entryY=0.5;entryDx=0;entryDy=0;exitX=0;exitY=0.5;exitDx=0;exitDy=0;" parent="1" source="fZSX2Tx-VuzL_oRfiSZg-106" target="akp7HB05Ez-BgF-G3p8F-1" edge="1">
          <mxGeometry relative="1" as="geometry">
            <mxPoint x="1270" y="947" as="sourcePoint" />
            <mxPoint x="1090" y="667" as="targetPoint" />
          </mxGeometry>
        </mxCell>
        <mxCell id="akp7HB05Ez-BgF-G3p8F-95" style="rounded=0;orthogonalLoop=1;jettySize=auto;html=1;exitX=1;exitY=0.5;exitDx=0;exitDy=0;entryX=0;entryY=0.5;entryDx=0;entryDy=0;endArrow=none;startFill=0;" parent="1" source="akp7HB05Ez-BgF-G3p8F-44" target="fZSX2Tx-VuzL_oRfiSZg-109" edge="1">
          <mxGeometry relative="1" as="geometry">
            <mxPoint x="1310" y="787" as="sourcePoint" />
            <mxPoint x="1430" y="867" as="targetPoint" />
          </mxGeometry>
        </mxCell>
        <mxCell id="akp7HB05Ez-BgF-G3p8F-96" style="rounded=0;orthogonalLoop=1;jettySize=auto;html=1;exitX=1;exitY=0.5;exitDx=0;exitDy=0;entryX=0;entryY=0.5;entryDx=0;entryDy=0;endArrow=none;startFill=0;" parent="1" source="akp7HB05Ez-BgF-G3p8F-44" target="fZSX2Tx-VuzL_oRfiSZg-110" edge="1">
          <mxGeometry relative="1" as="geometry">
            <mxPoint x="1310" y="627" as="sourcePoint" />
            <mxPoint x="1430" y="867" as="targetPoint" />
          </mxGeometry>
        </mxCell>
        <mxCell id="akp7HB05Ez-BgF-G3p8F-97" style="rounded=0;orthogonalLoop=1;jettySize=auto;html=1;exitX=1;exitY=0.5;exitDx=0;exitDy=0;entryX=0;entryY=0.5;entryDx=0;entryDy=0;endArrow=none;startFill=0;" parent="1" source="akp7HB05Ez-BgF-G3p8F-45" target="fZSX2Tx-VuzL_oRfiSZg-109" edge="1">
          <mxGeometry relative="1" as="geometry">
            <mxPoint x="1310" y="627" as="sourcePoint" />
            <mxPoint x="1430" y="947" as="targetPoint" />
          </mxGeometry>
        </mxCell>
        <mxCell id="akp7HB05Ez-BgF-G3p8F-98" style="rounded=0;orthogonalLoop=1;jettySize=auto;html=1;exitX=1;exitY=0.5;exitDx=0;exitDy=0;entryX=0;entryY=0.5;entryDx=0;entryDy=0;endArrow=none;startFill=0;" parent="1" source="akp7HB05Ez-BgF-G3p8F-45" target="fZSX2Tx-VuzL_oRfiSZg-110" edge="1">
          <mxGeometry relative="1" as="geometry">
            <mxPoint x="1310" y="707" as="sourcePoint" />
            <mxPoint x="1430" y="867" as="targetPoint" />
          </mxGeometry>
        </mxCell>
        <mxCell id="akp7HB05Ez-BgF-G3p8F-107" value="" style="endArrow=classic;html=1;rounded=0;entryX=0;entryY=0.5;entryDx=0;entryDy=0;entryPerimeter=0;dashed=1;" parent="1" target="akp7HB05Ez-BgF-G3p8F-18" edge="1">
          <mxGeometry width="50" height="50" relative="1" as="geometry">
            <mxPoint x="510" y="340" as="sourcePoint" />
            <mxPoint x="920" y="460" as="targetPoint" />
          </mxGeometry>
        </mxCell>
        <mxCell id="akp7HB05Ez-BgF-G3p8F-108" value="" style="endArrow=classic;html=1;rounded=0;entryX=0.5;entryY=1;entryDx=0;entryDy=0;entryPerimeter=0;dashed=1;" parent="1" target="akp7HB05Ez-BgF-G3p8F-18" edge="1">
          <mxGeometry width="50" height="50" relative="1" as="geometry">
            <mxPoint x="480" y="400" as="sourcePoint" />
            <mxPoint x="874" y="478" as="targetPoint" />
            <Array as="points">
              <mxPoint x="480" y="478" />
              <mxPoint x="790" y="478" />
            </Array>
          </mxGeometry>
        </mxCell>
        <mxCell id="akp7HB05Ez-BgF-G3p8F-109" value="" style="endArrow=classic;html=1;rounded=0;entryX=0.5;entryY=0;entryDx=0;entryDy=0;entryPerimeter=0;dashed=1;" parent="1" target="akp7HB05Ez-BgF-G3p8F-18" edge="1">
          <mxGeometry width="50" height="50" relative="1" as="geometry">
            <mxPoint x="480" y="280" as="sourcePoint" />
            <mxPoint x="900" y="390" as="targetPoint" />
            <Array as="points">
              <mxPoint x="480" y="200" />
              <mxPoint x="790" y="200" />
            </Array>
          </mxGeometry>
        </mxCell>
        <mxCell id="akp7HB05Ez-BgF-G3p8F-113" value="" style="endArrow=classic;html=1;rounded=0;entryX=0.5;entryY=0;entryDx=0;entryDy=0;entryPerimeter=0;dashed=1;" parent="1" target="akp7HB05Ez-BgF-G3p8F-31" edge="1">
          <mxGeometry width="50" height="50" relative="1" as="geometry">
            <mxPoint x="487" y="1281" as="sourcePoint" />
            <mxPoint x="857" y="1200" as="targetPoint" />
            <Array as="points">
              <mxPoint x="487" y="1201" />
              <mxPoint x="797" y="1201" />
            </Array>
          </mxGeometry>
        </mxCell>
        <mxCell id="akp7HB05Ez-BgF-G3p8F-114" value="" style="endArrow=classic;html=1;rounded=0;entryX=0.5;entryY=1;entryDx=0;entryDy=0;entryPerimeter=0;dashed=1;" parent="1" target="akp7HB05Ez-BgF-G3p8F-31" edge="1">
          <mxGeometry width="50" height="50" relative="1" as="geometry">
            <mxPoint x="487" y="1401" as="sourcePoint" />
            <mxPoint x="907" y="1300" as="targetPoint" />
            <Array as="points">
              <mxPoint x="487" y="1481" />
              <mxPoint x="517" y="1481" />
              <mxPoint x="797" y="1481" />
            </Array>
          </mxGeometry>
        </mxCell>
        <mxCell id="akp7HB05Ez-BgF-G3p8F-115" value="" style="endArrow=classic;html=1;rounded=0;entryX=0;entryY=0.5;entryDx=0;entryDy=0;entryPerimeter=0;dashed=1;" parent="1" target="akp7HB05Ez-BgF-G3p8F-31" edge="1">
          <mxGeometry width="50" height="50" relative="1" as="geometry">
            <mxPoint x="517" y="1340" as="sourcePoint" />
            <mxPoint x="1157" y="1450" as="targetPoint" />
          </mxGeometry>
        </mxCell>
        <mxCell id="iwfAUyEC3lnXAY1kdjGo-5" value="" style="endArrow=classic;html=1;rounded=0;entryX=0;entryY=0.5;entryDx=0;entryDy=0;dashed=1;exitX=1;exitY=0.5;exitDx=0;exitDy=0;exitPerimeter=0;" parent="1" source="akp7HB05Ez-BgF-G3p8F-18" target="iwfAUyEC3lnXAY1kdjGo-4" edge="1">
          <mxGeometry width="50" height="50" relative="1" as="geometry">
            <mxPoint x="910" y="339.23" as="sourcePoint" />
            <mxPoint x="1160" y="339.23" as="targetPoint" />
            <Array as="points">
              <mxPoint x="1280" y="340" />
            </Array>
          </mxGeometry>
        </mxCell>
        <mxCell id="iwfAUyEC3lnXAY1kdjGo-6" value="" style="endArrow=classic;html=1;rounded=0;dashed=1;exitX=1;exitY=0.5;exitDx=0;exitDy=0;exitPerimeter=0;" parent="1" source="akp7HB05Ez-BgF-G3p8F-31" edge="1">
          <mxGeometry width="50" height="50" relative="1" as="geometry">
            <mxPoint x="880" y="1289" as="sourcePoint" />
            <mxPoint x="1280" y="1080" as="targetPoint" />
            <Array as="points">
              <mxPoint x="1280" y="1339" />
            </Array>
          </mxGeometry>
        </mxCell>
        <mxCell id="iwfAUyEC3lnXAY1kdjGo-13" value="&lt;font style=&quot;font-size: 25px;&quot;&gt;Weight Aggregation&lt;/font&gt;" style="text;html=1;align=center;verticalAlign=middle;whiteSpace=wrap;rounded=0;" parent="1" vertex="1">
          <mxGeometry x="1310" y="555" width="190" height="30" as="geometry" />
        </mxCell>
      </root>
    </mxGraphModel>
  </diagram>
</mxfile>
